<svg xmlns="http://www.w3.org/2000/svg" width="1600" height="1200" viewBox="0 0 1600 1200" role="img">
  <defs>
    <linearGradient id="b2" x1="0" y1="0" x2="0" y2="1">
      <stop offset="0" stop-color="#EFE4D0"/>
      <stop offset="1" stop-color="#C8A87E"/>
    </linearGradient>
  </defs>
  <rect width="1600" height="1200" fill="url(#b2)"/>
  <rect y="760" width="1600" height="440" fill="#8A6547" opacity="0.85"/>
  <g opacity="0.35" stroke="#5E422A" stroke-width="5">
    <line x1="0" y1="880" x2="1600" y2="880"/>
    <line x1="0" y1="1020" x2="1600" y2="1020"/>
  </g>
  <ellipse cx="800" cy="950" rx="300" ry="52" fill="#3E2C1D" opacity="0.4"/>
  <path d="M600 620 h400 l-42 280 a32 32 0 0 1 -32 28 H674 a32 32 0 0 1 -32 -28 z" fill="#F4EDE1"/>
  <path d="M600 620 h400 l-9 48 H609 z" fill="#D8C4A2"/>
  <ellipse cx="800" cy="590" rx="210" ry="95" fill="#D9C89A"/>
  <ellipse cx="730" cy="565" rx="95" ry="58" fill="#E4D4AC"/>
  <ellipse cx="875" cy="565" rx="100" ry="60" fill="#CDB581"/>
  <g fill="#6E5A2E" opacity="0.9">
    <ellipse cx="730" cy="540" rx="16" ry="10" transform="rotate(-18 730 540)"/>
    <ellipse cx="790" cy="525" rx="16" ry="10" transform="rotate(12 790 525)"/>
    <ellipse cx="850" cy="545" rx="16" ry="10" transform="rotate(-8 850 545)"/>
    <ellipse cx="900" cy="580" rx="14" ry="9" transform="rotate(20 900 580)"/>
    <ellipse cx="690" cy="580" rx="14" ry="9" transform="rotate(8 690 580)"/>
  </g>
  <circle cx="1080" cy="330" r="120" fill="#B52B31" opacity="0.18"/>
</svg>
